<svg id="icon" height="512" viewBox="0 0 128 128" width="512" xmlns="http://www.w3.org/2000/svg"><path d="m58.437 88.688h13v11.155h-13z" fill="#575b6d"/><path d="m92.444 91.868v3.413a.474.474 0 0 1 -.408.471l-16.411 2.408-2.725-7.436-6.657-18.164 6.481-32.481.592 4.189a54.626 54.626 0 0 0 7.028 20.053l4.216 7.14 4.3 7.284a25.835 25.835 0 0 1 3.584 13.123z" fill="#eeefee"/><path d="m92.444 91.868v3.413a.474.474 0 0 1 -.408.471l-16.411 2.408-2.725-7.436 9.7-2.117a2.476 2.476 0 0 0 1.955-2.422v-14.724l4.3 7.284a25.835 25.835 0 0 1 3.589 13.123z" fill="#ef5261"/><path d="m35.556 91.868v3.413a.474.474 0 0 0 .408.471l16.411 2.408 2.725-7.436 6.66-18.164-6.483-32.481-.592 4.189a54.626 54.626 0 0 1 -7.028 20.053l-4.216 7.14-4.3 7.284a25.835 25.835 0 0 0 -3.585 13.123z" fill="#eeefee"/><path d="m35.556 91.868v3.413a.474.474 0 0 0 .408.471l16.411 2.408 2.725-7.436-9.7-2.117a2.476 2.476 0 0 1 -1.955-2.422v-14.724l-4.3 7.284a25.835 25.835 0 0 0 -3.589 13.123z" fill="#ef5261"/><path d="m70.055 41.635v46.434h-12.182v-46.434a39.162 39.162 0 0 1 .269-4.781c.858-6.889 3.171-9.849 4.858-10.8a1.969 1.969 0 0 1 1.929 0c1.686.951 4 3.911 4.857 10.8a39.162 39.162 0 0 1 .269 4.781z" fill="#cdccce"/><path d="m70.682 43.3v.032h-13.66v-.032a5.686 5.686 0 0 1 5.686-5.686h2.292a5.686 5.686 0 0 1 5.682 5.686z" fill="#575b6d"/><path d="m72.454 36.522c-1.691-13.522-8.49-13.522-8.49-13.522s-6.8 0-8.49 13.522a41.426 41.426 0 0 0 -.292 5.113v49.125h17.564v-49.125a41.426 41.426 0 0 0 -.292-5.113zm-2.4 51.547h-12.181v-46.434a39.162 39.162 0 0 1 .269-4.781c.858-6.889 3.171-9.849 4.858-10.8a1.969 1.969 0 0 1 1.929 0c1.686.951 4 3.911 4.857 10.8a39.162 39.162 0 0 1 .269 4.781z" fill="#dbd8dd"/><rect fill="#ef5261" height="30.646" rx="1.346" width="2.691" x="62.654" y="74.354"/><path d="m78.056 99.842v3.552a1.608 1.608 0 0 1 -1.61 1.606h-7.024a1.608 1.608 0 0 1 -1.61-1.606v-3.552z" fill="#575b6d"/><path d="m78.056 92.182v7.66h-10.244v-7.66a5.122 5.122 0 1 1 10.244 0z" fill="#bbbbcd"/><path d="m49.944 99.842v3.552a1.608 1.608 0 0 0 1.61 1.606h7.024a1.608 1.608 0 0 0 1.61-1.606v-3.552z" fill="#575b6d"/><path d="m49.944 92.182v7.66h10.244v-7.66a5.122 5.122 0 1 0 -10.244 0z" fill="#bbbbcd"/></svg>